<?xml version="1.0" standalone="no"?>
<!DOCTYPE svg PUBLIC "-//W3C//DTD SVG 20010904//EN"
 "http://www.w3.org/TR/2001/REC-SVG-20010904/DTD/svg10.dtd">
<svg version="1.0" xmlns="http://www.w3.org/2000/svg"
 width="512.000000pt" height="512.000000pt" viewBox="0 0 512.000000 512.000000"
 preserveAspectRatio="xMidYMid meet">

<g transform="translate(0.000000,512.000000) scale(0.100000,-0.100000)"
fill="#000000" stroke="none">
<path d="M784 5109 c-55 -16 -127 -72 -159 -123 -25 -42 -31 -62 -34 -128 -3
-69 0 -85 23 -133 51 -103 128 -147 267 -153 l96 -4 7 -95 c10 -143 46 -210
140 -263 l53 -30 6 -253 c7 -284 21 -388 73 -545 89 -270 263 -511 487 -676
90 -66 112 -95 111 -148 -2 -50 -22 -79 -92 -129 -293 -214 -484 -513 -552
-866 -16 -84 -22 -165 -27 -366 l-6 -258 -31 -14 c-104 -50 -152 -132 -162
-276 l-7 -97 -96 -4 c-139 -6 -216 -50 -267 -153 -23 -48 -26 -64 -23 -133 3
-66 9 -86 34 -128 34 -54 105 -108 165 -124 25 -7 618 -9 1791 -8 l1754 3 51
27 c96 51 144 131 144 243 0 112 -48 193 -144 242 -42 22 -68 28 -147 31 l-96
4 -7 96 c-10 143 -52 219 -146 267 l-47 24 -6 253 c-7 285 -21 389 -73 546
-90 272 -257 504 -493 681 -98 75 -120 112 -101 173 8 29 26 51 72 86 117 89
199 164 209 190 12 31 -4 78 -32 92 -34 19 -58 10 -120 -42 -123 -106 -207
-162 -326 -220 -101 -48 -124 -64 -129 -85 -10 -37 7 -76 40 -91 24 -12 34
-12 72 3 24 9 48 14 52 11 5 -3 12 -23 15 -43 10 -62 56 -119 149 -189 267
-198 437 -472 493 -791 10 -60 15 -157 15 -321 l0 -234 -32 6 c-18 3 -62 20
-98 38 -107 51 -211 166 -378 413 -188 280 -281 383 -409 457 l-53 30 0 296
c0 164 5 324 10 357 21 132 93 227 222 295 205 108 378 281 475 475 65 130
113 306 113 417 0 97 -66 168 -165 176 -72 6 -318 -14 -464 -38 -64 -11 -179
-36 -256 -56 -77 -21 -160 -37 -185 -38 -25 0 -106 17 -180 37 -204 55 -498
97 -689 97 -125 0 -201 -68 -201 -177 0 -152 106 -460 185 -539 47 -47 125
-19 125 45 0 15 -22 70 -49 122 -58 109 -101 247 -104 334 l-2 60 110 -2 c242
-5 435 -39 780 -138 127 -37 282 -77 345 -91 126 -26 346 -54 426 -54 28 0 66
-3 83 -6 l31 -6 -42 -81 c-79 -151 -204 -284 -342 -364 -31 -18 -81 -48 -112
-65 -76 -45 -166 -142 -204 -224 -50 -104 -59 -182 -60 -501 l0 -283 -100 0
-100 0 0 293 c0 330 -8 387 -65 503 -47 96 -123 170 -244 238 -53 30 -118 71
-146 90 -57 41 -82 44 -119 15 -32 -25 -36 -79 -8 -107 29 -29 99 -75 187
-123 104 -57 158 -107 196 -184 42 -86 48 -150 48 -485 l0 -285 -62 -35 c-34
-19 -101 -74 -149 -121 -74 -72 -88 -91 -88 -118 0 -40 38 -81 76 -81 19 0 45
18 96 70 125 125 209 169 343 177 136 9 241 -26 348 -116 77 -64 133 -136 285
-363 76 -113 164 -230 207 -276 41 -44 75 -83 75 -86 0 -3 -396 -6 -880 -6
-484 0 -880 3 -880 6 0 3 34 42 75 86 41 44 112 134 156 200 65 99 79 126 74
147 -11 48 -62 73 -110 55 -8 -4 -53 -61 -98 -128 -110 -162 -209 -262 -307
-309 -41 -19 -88 -38 -103 -42 l-29 -6 5 278 c4 261 6 284 30 375 75 275 239
518 460 682 112 83 167 156 167 222 0 28 3 29 63 8 39 -13 50 -14 74 -2 15 7
32 26 37 41 18 50 -7 75 -140 142 -337 169 -562 443 -661 803 -25 92 -27 112
-31 380 l-4 282 1222 0 1222 0 -4 -277 c-3 -267 -5 -282 -32 -390 -27 -106
-28 -113 -12 -137 21 -33 62 -43 95 -25 19 10 32 33 48 79 40 119 53 233 60
503 l6 258 47 24 c94 48 136 124 146 267 l7 96 96 4 c79 3 105 9 147 31 96 49
144 130 144 242 0 112 -48 192 -144 243 l-51 27 -1760 2 c-1039 1 -1773 -2
-1791 -8z m3526 -154 c94 -49 94 -171 0 -220 -25 -13 -250 -15 -1745 -15
-1838 0 -1754 -2 -1799 49 -11 12 -21 41 -23 68 -4 39 -1 53 18 77 46 59 -64
55 1802 56 1498 0 1722 -2 1747 -15z m-332 -474 c-3 -99 -15 -122 -75 -147
-44 -19 -2628 -20 -2683 -1 -57 20 -80 66 -80 158 l0 79 1421 0 1421 0 -4 -89z
m-505 -780 c-1 -35 -6 -68 -10 -72 -11 -11 -269 6 -404 26 -117 18 -202 35
-196 41 21 21 439 73 567 70 l45 -1 -2 -64z m430 -2915 c60 -25 72 -48 75
-147 l4 -89 -233 0 c-225 0 -233 -1 -256 -22 -30 -28 -30 -74 -1 -105 l21 -23
384 0 c417 0 418 0 462 -56 28 -36 28 -102 0 -138 -47 -60 79 -56 -1794 -56
-1838 0 -1754 -2 -1799 49 -11 12 -21 41 -23 68 -4 39 -1 53 18 77 46 59 -5
56 1151 56 l1062 0 23 22 c30 28 30 74 1 105 l-21 23 -919 0 -918 0 0 79 c0
92 23 138 80 158 55 19 2639 18 2683 -1z"/>
<path d="M3192 527 c-46 -49 -12 -127 54 -127 39 0 74 36 74 76 0 65 -84 98
-128 51z"/>
<path d="M2083 3460 c-71 -29 -45 -140 33 -140 71 0 103 86 48 129 -29 23 -46
25 -81 11z"/>
<path d="M2356 3209 c-52 -41 -20 -129 48 -129 34 0 76 41 76 75 0 33 -41 75
-73 75 -13 0 -36 -9 -51 -21z"/>
<path d="M3624 3187 c-53 -46 -23 -127 47 -127 66 0 95 88 43 129 -34 27 -57
26 -90 -2z"/>
<path d="M4025 3019 c-101 -28 -130 -74 -84 -133 24 -31 47 -32 133 -10 77 20
96 37 96 84 0 69 -44 87 -145 59z"/>
<path d="M967 3012 c-22 -25 -22 -85 1 -104 21 -19 119 -48 160 -48 21 0 37 8
51 26 44 56 18 102 -72 128 -73 21 -120 20 -140 -2z"/>
<path d="M807 2612 c-24 -26 -22 -85 4 -108 17 -15 40 -19 125 -22 57 -3 120
-1 139 2 68 13 97 79 55 124 -20 21 -30 22 -164 22 -126 0 -145 -2 -159 -18z"/>
<path d="M3990 2608 c-42 -45 -13 -111 55 -124 19 -3 82 -5 139 -2 122 4 146
17 146 78 0 64 -16 70 -178 70 -132 0 -142 -1 -162 -22z"/>
<path d="M1035 2243 c-67 -20 -85 -38 -85 -83 0 -70 50 -85 172 -50 69 20 95
72 61 118 -24 33 -74 38 -148 15z"/>
<path d="M3942 2237 c-27 -29 -28 -71 -3 -96 22 -22 114 -51 164 -51 41 0 67
28 67 71 0 40 -28 65 -92 83 -78 22 -110 20 -136 -7z"/>
<path d="M2814 1520 c-26 -10 -54 -48 -54 -72 0 -9 11 -29 23 -44 31 -35 82
-38 109 -5 48 60 -10 148 -78 121z"/>
<path d="M2275 1275 c-14 -13 -25 -36 -25 -50 0 -14 11 -37 25 -50 48 -49 125
-19 125 50 0 69 -77 99 -125 50z"/>
</g>
</svg>
